# Blender 4.2.2 LTS
# www.blender.org
o Cone
v 0.000000 -3.500000 -5.000000
v 2.703204 -3.500000 -4.206267
v 4.548160 -3.500000 -2.077075
v 4.949107 -3.500000 0.711574
v 3.778748 -3.500000 3.274304
v 1.408663 -3.500000 4.797465
v -1.408663 -3.500000 4.797465
v -3.778748 -3.500000 3.274304
v -4.949107 -3.500000 0.711574
v -4.548160 -3.500000 -2.077075
v -2.703204 -3.500000 -4.206267
v 0.000000 3.500000 0.000000
vn 0.2324 0.5653 -0.7915
vn 0.6234 0.5653 -0.5402
vn 0.8165 0.5653 -0.1174
vn 0.7503 0.5653 0.3427
vn 0.4460 0.5653 0.6939
vn -0.0000 0.5653 0.8249
vn -0.4460 0.5653 0.6939
vn -0.7503 0.5653 0.3427
vn -0.8165 0.5653 -0.1174
vn -0.0000 -1.0000 -0.0000
vn -0.6234 0.5653 -0.5402
vn -0.2324 0.5653 -0.7915
vt 0.250000 0.490000
vt 0.250000 0.250000
vt 0.379754 0.451901
vt 0.468312 0.349700
vt 0.487557 0.215844
vt 0.431380 0.092833
vt 0.317616 0.019722
vt 0.182384 0.019722
vt 0.068620 0.092833
vt 0.012443 0.215844
vt 0.031688 0.349700
vt 0.750000 0.490000
vt 0.879754 0.451901
vt 0.968312 0.349700
vt 0.987557 0.215844
vt 0.931380 0.092833
vt 0.817616 0.019722
vt 0.682384 0.019722
vt 0.568620 0.092833
vt 0.512443 0.215844
vt 0.531688 0.349700
vt 0.620246 0.451901
vt 0.120246 0.451901
s 0
f 1/1/1 12/2/1 2/3/1
f 2/3/2 12/2/2 3/4/2
f 3/4/3 12/2/3 4/5/3
f 4/5/4 12/2/4 5/6/4
f 5/6/5 12/2/5 6/7/5
f 6/7/6 12/2/6 7/8/6
f 7/8/7 12/2/7 8/9/7
f 8/9/8 12/2/8 9/10/8
f 9/10/9 12/2/9 10/11/9
f 1/12/10 2/13/10 3/14/10 4/15/10 5/16/10 6/17/10 7/18/10 8/19/10 9/20/10 10/21/10 11/22/10
f 10/11/11 12/2/11 11/23/11
f 11/23/12 12/2/12 1/1/12
